<svg width="256" height="96" viewBox="0 0 256 96" fill="none" xmlns="http://www.w3.org/2000/svg">
<rect x="66.8369" y="5.5" width="57" height="57" fill="#6AAA64" stroke="black" stroke-width="3"/>
<rect x="1.8124" y="5.53495" width="57" height="57" transform="rotate(-0.0706774 1.8124 5.53495)" fill="#787C7E" stroke="black" stroke-width="3"/>
<rect x="131.837" y="5.5" width="57" height="57" fill="#C9B458" stroke="black" stroke-width="3"/>
<rect x="196.837" y="5.5" width="57" height="57" fill="#6AAA64" stroke="black" stroke-width="3"/>
<path d="M15.5631 12.0234H20.1831L23.6631 26.3934L27.2331 12.1434L32.8431 11.7234L36.6231 26.8134L40.1331 12.0234H44.4231L39.0231 32.0034H33.7731L29.9031 16.1934L25.8831 32.0034H20.6931L15.5631 12.0234Z" fill="black"/>
<path d="M95.3488 31.39C93.3888 31.39 91.6588 30.96 90.1588 30.1C88.6588 29.24 87.4888 28.03 86.6488 26.47C85.8288 24.91 85.4188 23.12 85.4188 21.1C85.4188 19.06 85.8288 17.26 86.6488 15.7C87.4688 14.14 88.6288 12.93 90.1288 12.07C91.6288 11.21 93.3688 10.78 95.3488 10.78C97.3088 10.78 99.0388 11.21 100.539 12.07C102.039 12.91 103.199 14.1 104.019 15.64C104.839 17.18 105.249 18.96 105.249 20.98C105.249 23.04 104.839 24.86 104.019 26.44C103.199 28 102.039 29.22 100.539 30.1C99.0388 30.96 97.3088 31.39 95.3488 31.39ZM95.3488 27.58C96.9888 27.58 98.2988 26.99 99.2788 25.81C100.279 24.63 100.779 23.06 100.779 21.1C100.779 19.82 100.549 18.69 100.089 17.71C99.6488 16.71 99.0088 15.95 98.1688 15.43C97.3488 14.89 96.4088 14.62 95.3488 14.62C94.2888 14.62 93.3388 14.89 92.4988 15.43C91.6788 15.95 91.0388 16.71 90.5788 17.71C90.1388 18.69 89.9188 19.82 89.9188 21.1C89.9188 22.38 90.1388 23.51 90.5788 24.49C91.0388 25.47 91.6788 26.23 92.4988 26.77C93.3188 27.31 94.2688 27.58 95.3488 27.58Z" fill="black"/>
<path d="M153.923 11.02C154.523 11 155.643 10.99 157.283 10.99C158.943 10.99 160.073 11 160.673 11.02C162.953 11.1 164.653 11.66 165.773 12.7C166.893 13.72 167.453 15.1 167.453 16.84C167.453 18.32 167.073 19.58 166.313 20.62C165.573 21.64 164.533 22.31 163.193 22.63C163.613 22.97 164.043 23.44 164.483 24.04C164.923 24.62 165.533 25.53 166.313 26.77C167.133 28.07 167.963 29.48 168.803 31H163.763L160.373 24.7C160.013 24.04 159.683 23.63 159.383 23.47C159.103 23.29 158.673 23.2 158.093 23.2V31H153.923V11.02ZM159.953 19.87C160.973 19.87 161.773 19.61 162.353 19.09C162.953 18.57 163.253 17.87 163.253 16.99C163.253 16.19 162.993 15.58 162.473 15.16C161.953 14.74 161.193 14.53 160.193 14.53H158.093V19.87H159.953Z" fill="black"/>
<path d="M220.318 31.03C218.898 31.03 217.838 31.02 217.138 31V11.02C217.998 11 219.268 10.99 220.948 10.99C222.648 10.99 223.918 11 224.758 11.02C226.718 11.04 228.418 11.44 229.858 12.22C231.318 12.98 232.438 14.07 233.218 15.49C234.018 16.91 234.418 18.57 234.418 20.47C234.418 22.55 233.958 24.38 233.038 25.96C232.138 27.54 230.858 28.77 229.198 29.65C227.558 30.53 225.648 30.98 223.468 31C222.768 31.02 221.718 31.03 220.318 31.03ZM223.438 27.22C225.458 27.22 227.048 26.63 228.208 25.45C229.368 24.27 229.948 22.65 229.948 20.59C229.948 18.73 229.448 17.3 228.448 16.3C227.468 15.3 226.048 14.8 224.188 14.8H221.488V27.22H223.438Z" fill="black"/>
<rect x="66.8369" y="36.5" width="57" height="57" fill="white" stroke="black" stroke-width="3"/>
<rect x="131.837" y="36.5" width="57" height="57" fill="white" stroke="black" stroke-width="3"/>
<rect x="196.837" y="36.5" width="57" height="57" fill="white" stroke="black" stroke-width="3"/>
<rect x="1.85048" y="36.5349" width="57" height="57" transform="rotate(-0.0706774 1.85048 36.5349)" fill="white" stroke="black" stroke-width="3"/>
<path d="M23.4461 80.1879C21.3165 80.2302 19.7265 80.2467 18.6761 80.2375L18.0819 50.2734C19.3711 50.2178 21.2754 50.1651 23.7949 50.1151C26.3444 50.0646 28.2493 50.0418 29.5097 50.0468C32.4497 50.0185 35.0111 50.5678 37.1939 51.6948C39.406 52.7911 41.1181 54.3925 42.3301 56.4989C43.5721 58.6047 44.2214 61.0823 44.2779 63.9317C44.3397 67.0511 43.7043 69.8093 42.3716 72.2062C41.0688 74.6025 39.1858 76.4852 36.7224 77.8543C34.2891 79.2228 31.438 79.9544 28.1693 80.0493C27.1201 80.1001 25.5457 80.1463 23.4461 80.1879ZM28.0119 74.3813C31.0413 74.3212 33.4082 73.3891 35.1128 71.5849C36.8174 69.7808 37.639 67.334 37.5778 64.2446C37.5224 61.4552 36.7301 59.3255 35.2006 57.8555C33.7012 56.3849 31.5567 55.6773 28.7673 55.7326L24.7181 55.8129L25.0874 74.4393L28.0119 74.3813Z" fill="black"/>
<path d="M95.3304 81.585C92.8404 81.585 90.6504 81.06 88.7604 80.01C86.8704 78.96 85.4004 77.49 84.3504 75.6C83.3304 73.68 82.8204 71.475 82.8204 68.985V51.03H89.3904V68.49C89.3904 70.71 89.9154 72.48 90.9654 73.8C92.0454 75.09 93.5004 75.735 95.3304 75.735C97.1604 75.735 98.6154 75.09 99.6954 73.8C100.775 72.48 101.315 70.71 101.315 68.49V51.03H107.84V68.985C107.84 71.475 107.315 73.68 106.265 75.6C105.245 77.49 103.79 78.96 101.9 80.01C100.01 81.06 97.8204 81.585 95.3304 81.585Z" fill="black"/>
<path d="M156.361 51.03H164.191L175.306 81H168.556L166.126 74.16H154.336L152.041 81H145.381L156.361 51.03ZM164.191 68.58L160.141 57.105L156.226 68.58H164.191Z" fill="black"/>
<path d="M217.567 51.03H224.092V75.33H234.892V81H217.567V51.03Z" fill="black"/>
</svg>
